<?xml version="1.0" encoding="utf-8"?>
<!-- Generator: Adobe Illustrator 21.1.0, SVG Export Plug-In . SVG Version: 6.00 Build 0)  -->
<svg version="1.1" id="Calque_1" xmlns="http://www.w3.org/2000/svg" xmlns:xlink="http://www.w3.org/1999/xlink" x="0px" y="0px"
	 viewBox="0 0 595.3 841.9" style="enable-background:new 0 0 595.3 841.9;" xml:space="preserve">
<style type="text/css">
	.st0{stroke:#000000;stroke-width:2;stroke-miterlimit:10;}
</style>
<g>
	<path class="st0" d="M446.6,492.7c-2.9,0-5.3,2.4-5.3,5.3v29.3l-138.3,68.8v-95.7c0-2.9-2.4-5.3-5.3-5.3c-2.9,0-5.3,2.4-5.3,5.3
		v95.6l-137.7-69v-28.7c0-2.9-2.4-5.3-5.3-5.3c-2.9,0-5.3,2.4-5.3,5.3v31.8c0,0.2,0,0.3,0,0.4c0,0.3,0,0.4,0.1,0.6
		c0,0.1,0.1,0.3,0.1,0.5c0,0.2,0.1,0.3,0.1,0.5c0.1,0.2,0.1,0.3,0.2,0.5c0.1,0.2,0.2,0.3,0.3,0.5c0.1,0.1,0.2,0.3,0.3,0.4
		c0.1,0.1,0.2,0.3,0.3,0.4c0.1,0.1,0.2,0.2,0.3,0.3c0.1,0.1,0.3,0.2,0.4,0.3c0.2,0.1,0.3,0.2,0.5,0.3c0.2,0.1,0.3,0.2,0.4,0.3
		l148,74.2c0.1,0,0.2,0.1,0.4,0.2c0.2,0.1,0.5,0.2,0.8,0.3c0.2,0.1,0.3,0.1,0.4,0.1c0.8,0.2,1.4,0.2,2.1,0c0.2-0.1,0.3-0.1,0.4-0.1
		c0.3-0.1,0.6-0.2,0.8-0.3c0.1-0.1,0.2-0.1,0.3-0.1l148.6-73.9c0.1-0.1,0.3-0.2,0.4-0.3c0.2-0.1,0.3-0.2,0.5-0.3
		c0.1-0.1,0.2-0.2,0.3-0.3c0.2-0.2,0.3-0.3,0.4-0.4c0.1-0.1,0.2-0.3,0.3-0.4c0.1-0.1,0.2-0.2,0.3-0.4c0.1-0.2,0.2-0.3,0.3-0.5
		c0.1-0.1,0.1-0.3,0.2-0.4c0.1-0.2,0.1-0.3,0.2-0.5c0-0.2,0.1-0.3,0.1-0.5c0-0.2,0-0.3,0-0.5c0-0.2,0-0.3,0-0.5V498
		C451.9,495.1,449.5,492.7,446.6,492.7z"/>
	<path class="st0" d="M297.6,107.6c2.9,0,5.3-2.4,5.3-5.3V88.4c0-2.9-2.4-5.3-5.3-5.3c-2.9,0-5.3,2.4-5.3,5.3v13.9
		C292.3,105.2,294.7,107.6,297.6,107.6z"/>
	<path class="st0" d="M345.4,117.2c0.7,0.3,1.4,0.4,2.1,0.4c2.1,0,4.1-1.3,4.9-3.2l5.4-12.8c1.1-2.7-0.1-5.8-2.8-6.9
		c-0.7-0.3-1.3-0.4-2.1-0.4c-2.1,0-4.1,1.3-4.9,3.2l-5.4,12.8C341.5,113,342.7,116.1,345.4,117.2z"/>
	<path class="st0" d="M388.2,145.1c1.4,0,2.7-0.6,3.7-1.6l9.8-9.8c2.1-2.1,2.1-5.4,0-7.5c-1-1-2.3-1.6-3.7-1.6
		c-1.4,0-2.7,0.6-3.7,1.6l-9.8,9.8c-1,1-1.6,2.3-1.6,3.7c0,1.4,0.6,2.7,1.6,3.7C385.5,144.5,386.8,145.1,388.2,145.1z"/>
	<path class="st0" d="M415.6,185.8c0.7,0,1.4-0.1,2.1-0.4l12.8-5.4c1.3-0.6,2.3-1.6,2.9-2.9c0.5-1.3,0.5-2.8,0-4.1
		c-0.8-2-2.8-3.2-4.9-3.2c-0.7,0-1.4,0.1-2.1,0.4l-12.8,5.4c-2.7,1.1-4,4.3-2.8,7C411.6,184.5,413.5,185.8,415.6,185.8z"/>
	<path class="st0" d="M425.7,225c-2.9,0-5.3,2.4-5.3,5.3c0,2.9,2.4,5.3,5.3,5.3h13.9c2.9,0,5.3-2.4,5.3-5.3c0-2.9-2.4-5.3-5.3-5.3
		H425.7z"/>
	<path class="st0" d="M242.9,114.4c0.8,2,2.7,3.2,4.9,3.2c0.7,0,1.4-0.1,2.1-0.4c1.3-0.5,2.3-1.6,2.8-2.9c0.5-1.3,0.5-2.8,0-4.1
		l-5.4-12.8c-0.8-2-2.8-3.2-4.9-3.2c-0.7,0-1.4,0.1-2.1,0.4c-1.3,0.6-2.3,1.6-2.9,2.9c-0.5,1.3-0.5,2.8,0,4.1L242.9,114.4z"/>
	<path class="st0" d="M203.3,143.5c1,1,2.3,1.5,3.7,1.5c1.4,0,2.8-0.6,3.8-1.6c2.1-2.1,2.1-5.4,0-7.5l-9.8-9.8c-1-1-2.3-1.6-3.8-1.6
		c-1.4,0-2.7,0.6-3.8,1.6c-2.1,2.1-2.1,5.4,0,7.5L203.3,143.5z"/>
	<path class="st0" d="M164.8,180l12.8,5.4c0.7,0.3,1.4,0.4,2.1,0.4c2.1,0,4.1-1.3,4.9-3.2c0.6-1.3,0.6-2.7,0-4.1
		c-0.5-1.3-1.5-2.3-2.8-2.9l-12.8-5.4c-0.7-0.3-1.4-0.4-2.1-0.4c-2.1,0-4.1,1.3-4.9,3.2C160.8,175.7,162.1,178.8,164.8,180z"/>
	<path class="st0" d="M155.7,235.6h13.9c2.9,0,5.3-2.4,5.3-5.3c0-2.9-2.4-5.3-5.3-5.3h-13.9c-2.9,0-5.3,2.4-5.3,5.3
		C150.4,233.2,152.8,235.6,155.7,235.6z"/>
	<path class="st0" d="M535,406l-76.4-25.1l77.5-51.6c0.1-0.1,0.2-0.2,0.3-0.2c0.3-0.2,0.6-0.5,0.9-0.9c0.1-0.1,0.1-0.2,0.2-0.3
		c0.3-0.4,0.5-0.8,0.7-1.2l0-0.1c0-0.1,0.1-0.2,0.1-0.3l0.1-0.2c0-0.1,0.1-0.2,0.1-0.4c0-0.1,0-0.2,0-0.3l0-0.4c0-0.1,0-0.2,0-0.3
		c0-0.1,0-0.3,0-0.4l0-0.3c0-0.1,0-0.2,0-0.3c0-0.1-0.1-0.3-0.1-0.4l0-0.1c-0.1-0.2-0.1-0.3-0.1-0.5c-0.1-0.2-0.2-0.3-0.2-0.4
		c-0.1-0.2-0.2-0.3-0.3-0.5c0,0,0,0,0-0.1c-0.1-0.1-0.2-0.2-0.3-0.3l-0.1-0.1c-0.1-0.1-0.2-0.2-0.3-0.3l-0.1-0.1l-0.5-0.4
		c-0.1,0-0.1-0.1-0.2-0.1c-0.2-0.1-0.3-0.2-0.4-0.2l-0.1,0c-0.1-0.1-0.3-0.2-0.4-0.2l-0.4-0.2L417.5,276c-0.6-0.2-1.2-0.3-1.9-0.3
		c-2.2,0-4.2,1.4-5,3.5c-1,2.7,0.4,5.8,3.1,6.8l107.9,40.3l-75.5,50.3l-62.6-31.1c-0.7-0.4-1.5-0.6-2.4-0.6c-2,0-3.9,1.1-4.8,2.9
		c-1.3,2.6-0.2,5.8,2.4,7.1l55.8,27.8l-137,68.1l-136.5-68.4l55.2-27.4c1.3-0.6,2.2-1.7,2.7-3.1c0.5-1.3,0.4-2.8-0.3-4
		c-0.9-1.8-2.7-2.9-4.8-2.9c-0.8,0-1.6,0.2-2.4,0.6l-62,30.8l-75.2-50.4l107-39.8c1.3-0.5,2.4-1.5,3-2.8c0.6-1.3,0.6-2.7,0.1-4.1
		c-0.8-2.1-2.8-3.5-5-3.5c-0.6,0-1.2,0.1-1.8,0.3L61.1,319.4c-1.9,0.7-3.2,2.4-3.4,4.3c-0.2,2,0.7,3.9,2.3,5l77.4,51.9L60.3,406
		c-2.1,0.7-3.5,2.5-3.6,4.7c-0.2,2.2,1,4.2,2.9,5.1l148.9,74c1.2,0.6,2.7,0.7,4,0.3l85.1-27.9l84.7,28.1c1.3,0.4,2.8,0.3,4-0.3
		l149.3-74.2c1.9-1,3.1-3,2.9-5.1C538.4,408.5,537,406.7,535,406z M211.3,479.4L75.9,412l73-24.1l134.9,67.6L211.3,479.4z
		 M383.6,479.5l-72.1-23.9L447,388.3l72.4,23.8L383.6,479.5z"/>
	<path class="st0" d="M240,303.3c5.4,4.3,8.5,10.6,8.5,17.4v4.5c0,2.9,2.4,5.3,5.3,5.3h43.8c2.9,0,5.3-2.4,5.3-5.3v-59.7l3-0.8
		c14.9-3.8,25.3-17.2,25.3-32.5c0-18.5-15.1-33.6-33.6-33.6c-18.5,0-33.6,15.1-33.6,33.6c0,15.3,10.4,28.7,25.3,32.5l3,0.8v54.4
		h-33.1l-0.5-3.5c-1.1-8.5-5.4-16.1-12.2-21.4c-19.9-15.7-31.3-39.3-31.3-64.6c0-23.4,10-45.7,27.4-61.4c15.3-13.7,34.3-21,54.9-21
		c3.1,0,6.3,0.2,9.5,0.5c38.4,4.2,69.7,36.5,72.8,75.1c2.2,27.7-9.5,54.4-31.2,71.4c-7.9,6.2-12.4,15.5-12.4,25.6v31.3
		c0,4.8-3.9,8.7-8.7,8.7h-7.1c-2.9,0-5.3,2.4-5.3,5.3c0,9.6-7.8,17.4-17.4,17.4c-9.6,0-17.4-7.8-17.4-17.4c0-2.9-2.4-5.3-5.3-5.3
		h-21.1c-2.9,0-5.3,2.4-5.3,5.3c0,2.9,2.4,5.3,5.3,5.3h16.2l0.9,2.8c3.6,11.7,14.6,19.9,26.8,19.9c12.3,0,23.3-8.2,26.8-20l0.8-2.7
		l2.9-0.1c10.4-0.4,18.6-8.8,18.6-19.2v-31.3c0-6.8,3-13.1,8.3-17.2c24.5-19.3,37.7-49.4,35.2-80.6c-3.5-44.3-38.1-80-82.2-84.8
		c-3.4-0.4-6.9-0.6-10.3-0.6c-23.1,0-45.2,8.4-62.2,23.7c-19.7,17.6-31,42.9-31,69.3C204.6,258.9,217.5,285.5,240,303.3z
		 M274.6,232.1c0-12.7,10.3-23,23-23c12.7,0,23,10.3,23,23c0,12.7-10.3,23-23,23C285,255.1,274.6,244.8,274.6,232.1z"/>
</g>
</svg>
