<?xml version="1.0" encoding="utf-8"?>
<!-- Generator: Adobe Illustrator 21.1.0, SVG Export Plug-In . SVG Version: 6.00 Build 0)  -->
<svg version="1.1" id="Calque_1" xmlns="http://www.w3.org/2000/svg" xmlns:xlink="http://www.w3.org/1999/xlink" x="0px" y="0px"
	 viewBox="0 0 595.3 841.9" style="enable-background:new 0 0 595.3 841.9;" xml:space="preserve">
<style type="text/css">
	.st0{stroke:#000000;stroke-width:2;stroke-miterlimit:10;}
</style>
<g>
	<path class="st0" d="M563,338.8l-97.7-153.5c-1-1.6-2.7-2.6-4.6-2.7l-0.3,0c0,0,0,0,0,0c-1.1,0-2.1,0.3-3.1,0.9L406.3,215
		c-2.7,1.7-3.6,5.3-1.9,8l0.1,0.1l9.6,14.7l-14.8,7.4c-2.8,1.4-6.2,1.7-9.2,0.8l-53.1-15.2c-3.8-1.1-7.8-1.7-11.8-1.7l-58.6,0
		c-13.5,0-26.3,6.4-34.4,17.2l-1.1,1.4h-29.6l-27-13.5l7.2-11.1c1.7-2.7,1-6.3-1.7-8l-0.1-0.1l-51.1-31.5c-1-0.6-2.1-0.9-3.3-0.9
		l-0.2,0c-1.8,0.2-3.4,1.2-4.4,2.7L23,338.8c-0.8,1.3-1.1,2.9-0.8,4.4c0.3,1.5,1.2,2.8,2.5,3.6c0.1,0.1,0.2,0.1,0.3,0.2l51.2,27.9
		c0.9,0.5,1.8,0.7,2.8,0.7c2,0,3.8-1,4.9-2.6l14.4-22.2l31.6,31.6l-11.7,18.1c-7.3,11.3-4,26.4,7.3,33.7c3,1.9,6.3,3.1,9.9,3.6
		l3.3,0.4l-0.3,3.3c-0.8,8.9,3.3,17.5,10.7,22.4l0.9,0.6c3.9,2.5,8.4,3.9,13.1,3.9c1.5,0,3-0.1,4.5-0.4l3.1-0.6l0.9,3
		c1.6,5.5,5.2,10.3,9.9,13.4c3.9,2.6,8.5,3.9,13.3,3.9c2.5,0,4.9-0.4,7.3-1.1l3-0.9l1.2,2.9c1.9,4.5,5.1,8.2,9.1,10.9
		c3.9,2.5,8.5,3.9,13.1,3.9c8.4,0,16.1-4.2,20.6-11.1l3.5-5.5l56.6,21.6c3.3,1.2,6.7,1.9,10.2,1.9c9.8,0,18.8-4.9,24.1-13l7.2-11
		l2.3,0.4c1.9,0.3,3.9,0.5,5.9,0.5c11.2,0,21.8-5.4,28.3-14.3l8.3-11.4c0.5-0.6,0.8-1.3,1-2l0.5-1.8l1.8-0.6
		c6.6-2.3,12.3-6.4,16.4-12l8.7-12l1.8,0c9.4,0.2,18.4-4.2,23.9-11.6l0.5-0.7c7.9-10.6,7.7-25.3-0.6-35.7l-2.3-2.9l41.7-29.2
		L502,373c1.1,1.6,2.9,2.6,4.9,2.6c1,0,1.9-0.2,2.8-0.7l51.2-27.9c1.4-0.7,2.4-2,2.8-3.5c0.4-1.5,0.3-3.1-0.5-4.4
		C563.1,339,563,338.9,563,338.8z M77.2,362.1l-41-22.4l91.2-143.4l41.2,25.4L77.2,362.1z M146.9,423.8l-0.5,0.4
		c-2.2,1.6-4.7,2.5-7.4,2.5c-2.5,0-4.9-0.7-7-2.1c-6-3.9-7.7-11.7-3.8-17.7l16.6-25.7c2.4-3.7,6.4-5.9,10.6-5.9
		c2.5,0,4.9,0.7,7.1,2.1l1.6,1v0.2c4,3.5,5.4,8.8,3.5,13.9l-0.1,0.4L146.9,423.8z M173.8,451.4c-2.4,3.6-6.2,5.7-10.4,5.7
		c-2.4,0-4.9-0.7-7-2.1l-0.9-0.6c-2.9-1.9-4.8-4.7-5.5-7.8c-0.7-3.2,0-6.5,1.9-9.4l3.8-5.8l0.3-0.3c1.2-1.2,2.3-2.6,3.2-4l16.6-25.7
		c0.6-0.9,1.1-1.8,1.5-2.8l0.2-0.4l11.2-17c2.4-3.6,6.2-5.7,10.4-5.7c2.4,0,4.9,0.7,7,2.1l1.7,1.1l0,0.1c2.5,1.9,4.1,4.4,4.7,7.3
		c0.7,3.2,0,6.5-1.9,9.4l-9.2,13.9c-0.5,0.6-1,1.3-1.4,1.9L173.8,451.4z M208.4,465.9c-0.7,1.1-1.3,2.2-1.8,3.4l-0.3,0.5l-0.5,0.8
		c-2.4,3.7-6.4,5.9-10.6,5.9c-2.5,0-5-0.8-7.1-2.2c-6.1-4-7.7-11.6-3.7-17.7l6-9.2l20.5-31.1l0.2-0.2c2.4-2.7,5.8-4.3,9.4-4.3
		c2.5,0,5,0.8,7.1,2.2c2.9,1.9,4.9,4.8,5.6,8.1c0.7,3.3,0,6.7-1.9,9.7l-2.8,4.2l-0.3,0.3c-1.2,1.2-2.3,2.6-3.3,4L208.4,465.9z
		 M256.2,460.4l-16.6,25.7c-2.4,3.7-6.4,5.9-10.6,5.9c-2.5,0-4.9-0.7-7.1-2.1c-4.9-3.2-7-9-5.4-14.4l0.1-0.5l20.7-31.6l0.5-0.4
		c2.2-1.6,4.7-2.5,7.4-2.5c2.5,0,4.9,0.7,7,2.1C258.4,446.6,260.1,454.4,256.2,460.4z M441.1,413.8l-0.6,0.8c-3.3,4.5-8.4,7-13.9,7
		c-3.1,0-6.3-0.9-9-2.5l-75-45c-0.9-0.5-1.9-0.8-2.9-0.8c-2.1,0-4,1.1-5,2.9c-1.6,2.7-0.7,6.3,2,7.9l75.7,45.4l-6.4,8.8
		c-4.2,5.7-10.8,9.1-17.8,9.1c-4.1,0-8.2-1.2-11.8-3.4L324,411.4c-1-0.6-2.1-1-3.2-1l-0.2,0c-1.5,0-3,0.7-4,1.8
		c-1.1,1.1-1.6,2.6-1.6,4.2c0.1,2,1.1,3.8,2.8,4.8l52.3,32.8c2.6,1.6,5.3,2.8,8.3,3.7l4.8,1.4l-5.2,7.1c-4.4,6-11.4,9.6-18.7,9.6
		c-4,0-8-1.1-11.5-3.1l-42.5-24.3c-1-0.6-2.2-0.9-3.4-0.8l-0.3,0c-1.5,0.2-2.8,0.8-3.7,1.9c-1,1.2-1.5,2.7-1.4,4.2
		c0.1,2,1.3,3.8,3,4.7l40.8,23.3l-6.1,9.3c-3.2,4.9-8.5,7.8-14.2,7.8c-2.1,0-4.2-0.4-6.1-1.1l-54.3-20.8l6.6-10.3
		c7.3-11.3,4-26.4-7.2-33.8c-3.2-2.1-6.8-3.3-10.7-3.7l-3.3-0.3l0.1-3.3c0.3-8.6-3.9-16.8-11-21.4c-2.5-1.6-5.3-2.8-8.2-3.4
		l-3.8-0.8l1.2-3.7c3.5-10.4-0.4-21.8-9.6-27.8l-1-0.7c-4.9-3.2-10.9-4.5-16.8-3.6l-1.3,0.3c-5.6,1.2-10.7,4.3-14.2,8.8l-2.8,3.6
		l-2.8-3.6c-1.7-2.2-3.7-4.1-6.1-5.7c-3.9-2.5-8.4-3.9-13.1-3.9c-1.8,0-3.5,0.2-5.2,0.6c-4.3,0.9-8.3,3-11.4,5.9l-2.5,2.3
		l-31.5-31.5l63.1-96.9l30.7,15.3h24.1L186,310.6c-1.9,2.6-1.2,6.2,1.4,8.1c1,0.7,2.2,1.1,3.4,1.1h45.9c8.2,0,15.8-4.1,20.3-10.9
		l7.6-11.3c2.4-3.6,6.4-5.7,10.7-5.7h12.3c2.5,0,4.9,0.7,7.1,2.1l142.3,94.9c4.1,2.7,6.8,6.8,7.6,11.5
		C445.1,405.1,444,409.9,441.1,413.8z M437.2,375.2l-136.3-90.8c-4-2.7-8.7-4.1-13.5-4.1H275c-8.2,0-15.8,4.1-20.3,10.9l-7.5,11.3
		c-2.4,3.6-6.4,5.7-10.7,5.7H202l38.3-53.5c5.8-8.7,15.6-13.9,26.1-13.9H325c2.9,0,5.8,0.4,8.6,1.2l53.1,15.2
		c5.8,1.7,12.2,1,17.6-1.7l12.2-6.1c0.2-0.1,0.4-0.2,0.6-0.3l2.9-1.8l62.5,96.1L437.2,375.2z M508.8,362.1l-91.4-140.4l41.2-25.4
		l91.3,143.4L508.8,362.1z"/>
</g>
</svg>
