<svg id="Calque_1" data-name="Calque 1" xmlns="http://www.w3.org/2000/svg" viewBox="0 0 385.12 494.87"><title>empathy</title><path d="M374.2,226.48a105.49,105.49,0,0,0-87.39,46.81,105.48,105.48,0,0,0-87.39-46.81c-62.9,0-105.17,42.27-105.17,105.17,0,68.26,21.07,151.86,177.38,254.4l15.18,9.79L302.05,586c156.25-102.5,177.32-186.1,177.32-254.36C479.37,268.76,437.11,226.48,374.2,226.48ZM292.31,571.05l-5.5,3.55-5.44-3.51C132.22,473.25,112.12,395.15,112.12,331.66c0-53,34.28-87.32,87.32-87.32a87.57,87.57,0,0,1,77.44,47.26l-46.63,97.59c-.64,1.19-6.07,11.94,0,22.06,5,8.4,15.85,12.66,32.56,12.66h0c1.71-.08,13.72-.85,23.44-7.37a34.56,34.56,0,0,0,18.26,7.79c1.24.05,2.45.08,3.63.08,14.35,0,24.13-3.83,29.1-11.39,6.48-9.86,1.5-20.82,1.08-21.66l-13.48-31.5,1.2-2a8.93,8.93,0,1,0-15.23-9.32l-3.49,5.69h0c-7,11.34-22.45,36.45-27.84,44.38l0,0-.07.1c-3.68,5.39-14,7.1-17,7.26-14,0-16.64-3.55-16.89-4-.77-1.23.08-3.8.6-4.85l40.5-84.73.15.33,8-17.44,0-.07h0l0-.11a87.6,87.6,0,0,1,79.27-50.9c53,0,87.32,34.28,87.32,87.32C461.51,395.15,441.41,473.25,292.31,571.05Zm21.13-192.58,8.68,20.29c.14.29,1.11,3.14.24,4.46s-5.6,3.78-16.62,3.3a16.53,16.53,0,0,1-7.77-3.4C302.21,396.52,308.11,387.07,313.43,378.47ZM192.58,206.36a52.69,52.69,0,1,1,52.69-52.69A52.75,52.75,0,0,1,192.58,206.36Zm0-87.52a34.83,34.83,0,1,0,34.84,34.83A34.87,34.87,0,0,0,192.58,118.84ZM375.4,206.36a52.69,52.69,0,1,1,52.69-52.69A52.75,52.75,0,0,1,375.4,206.36Zm0-87.52a34.83,34.83,0,1,0,34.83,34.83A34.87,34.87,0,0,0,375.4,118.84Z" transform="translate(-94.25 -100.98)"/></svg>