<?xml version="1.0" encoding="utf-8"?>
<!-- Generator: Adobe Illustrator 21.1.0, SVG Export Plug-In . SVG Version: 6.00 Build 0)  -->
<svg version="1.1" id="Calque_1" xmlns="http://www.w3.org/2000/svg" xmlns:xlink="http://www.w3.org/1999/xlink" x="0px" y="0px"
	 viewBox="0 0 595.3 841.9" style="enable-background:new 0 0 595.3 841.9;" xml:space="preserve">
<path d="M469.6,179.2c4.6-31.1,6-64.8,4.6-107.2c0-0.7,0-1.3-0.7-2l0,0c0-0.7-0.7-1.3-1.3-2l-0.7-0.7c-0.7-0.7-0.7-0.7-1.3-1.3
	c0,0,0,0-0.7,0l0,0c0,0,0,0-0.7,0s-1.3,0-2,0l0,0c-0.7,0-2,0-2.6,0.7h-0.7c-0.7,0-1.3,0.7-1.3,0.7l-0.7,0.7c0,0-0.7,0-0.7,0.7
	l-11.9,14.6C332,225.5,254.6,319.4,263.2,382.9c2.6,17.2,11.2,32.4,26.5,45l-7.9,17.2h-74.1c-4,0-7.3,3.3-7.3,7.3v38.4
	c0,4,3.3,7.3,7.3,7.3h15.9v9.9h-95.2c-2,0-4.6,1.3-6,2.6c-1.3,2-2,4-1.3,6l24.5,105.2c0.7,3.3,4,6,7.3,6h217.6c3.3,0,6.6-2.6,7.3-6
	l24.5-105.2c0.7-2,0-4.6-1.3-6c-1.3-2-3.3-2.6-6-2.6h-95.2V498h15.9c4,0,7.3-3.3,7.3-7.3v-38.4c0-4-3.3-7.3-7.3-7.3h-17.9l6-11.9
	c47.6-3.3,108.5-71.4,140.2-158.1c0.7-2,0.7-4.6-0.7-6c-1.3-2-3.3-3.3-5.3-3.3l-9.9-1.3l27.1-24.5c1.3-0.7,2-2,2-3.3
	C462.3,217.6,466.3,199,469.6,179.2C469.6,179.9,469.6,179.9,469.6,179.2z M308.2,459.6v23.8h-15.9c-4,0-7.3,3.3-7.3,7.3v24.5
	c0,4,3.3,7.3,7.3,7.3h93.3l-21.2,90.6H158.7l-21.2-90.6h93.3c4,0,7.3-3.3,7.3-7.3v-24.5c0-4-3.3-7.3-7.3-7.3H215v-23.8h59.5
	l-52.3,109.8c-2,4,0,7.9,3.3,9.9c1.3,0.7,2,0.7,3.3,0.7c2.6,0,5.3-1.3,6.6-4L291,459.6H308.2z M455.1,174.6l-44.3,33.1l48.9-103.2
	C459.7,130.9,458.4,153.4,455.1,174.6z M277.1,380.9C269.9,328,334,245.3,433.9,123.6L296.3,414
	C285.1,404.7,279.1,393.5,277.1,380.9z M406.1,262.5c-2,2-2.6,4.6-2,7.3c0.7,2.6,3.3,4.6,6,5.3l16.5,2.6
	c-31.1,78-80,129-115.7,138.9l86-181.2l54.9-40.3c-2,11.2-4.6,22.5-7.9,33.7L406.1,262.5z"/>
</svg>
