<?xml version="1.0" encoding="utf-8"?>
<!-- Generator: Adobe Illustrator 21.1.0, SVG Export Plug-In . SVG Version: 6.00 Build 0)  -->
<svg version="1.1" id="Calque_1" xmlns="http://www.w3.org/2000/svg" xmlns:xlink="http://www.w3.org/1999/xlink" x="0px" y="0px"
	 viewBox="0 0 595.3 841.9" style="enable-background:new 0 0 595.3 841.9;" xml:space="preserve">
<path d="M31,521.5c-2.4,2.4-3.6,6-2.4,9.5c1.2,3.6,4.2,6,7.7,6c2.4,0,4.8,0,6.5,0c18.5,0,36.9-6.5,51.2-17.9
	c25,11.3,54.2,17.9,85.1,17.9c60.7,0,113.1-24.4,136.9-59.5c3.6,0,7.1,0,11.3,0c50.6,0,98.2-10.1,139.3-29.8
	c23.2,19,52.4,29.8,82.1,29.8c3,0,6.5,0,10.1-0.6c3.6,0,6.5-2.4,7.7-6c1.2-3.6,0-7.1-2.4-9.5c-17.3-15.5-29.8-35.7-34.5-58.3
	c24.4-25.6,37.5-56,37.5-86.9c0-88.7-107.7-160.7-239.9-160.7c-132.2,0-239.9,72.6-239.9,161.3c0,11.3,1.8,22.6,5.4,33.9
	C53.6,369.2,28,400.1,28,434.6c0,19.6,7.7,38.1,22.6,54.2C47.6,501.3,40.5,512.6,31,521.5z M104.8,316.8
	c0-78.6,100-142.9,222.6-142.9c122.6,0,222,64.3,222,142.9c0,27.4-12.5,54.8-35.7,78c-2.4,1.8-3,5.4-2.4,7.7
	c4.2,20.8,13.1,40.5,26.2,57.1c-23.8-2.4-45.8-12.5-63.7-28.6c-3-2.4-6.5-3-10.1-1.2c-39.3,20.2-86.9,30.4-136.9,30.4
	c-0.6,0-1.2,0-1.8,0c3-8.3,4.8-16.7,4.8-25.6c0-56.6-67.9-102.4-151.2-102.4c-25,0-48.8,4.2-70.2,11.9
	C106.6,335.2,104.8,326.3,104.8,316.8z M179.2,350.1c73.8,0,133.3,38.1,133.3,84.5c0,46.4-59.5,84.5-133.3,84.5
	c-30.4,0-58.9-6.5-82.7-18.5c-1.2-0.6-2.4-1.2-4.2-1.2c-2.4,0-4.2,0.6-6,2.4c-8.3,7.7-18.5,13.1-29.2,15.5c6-8.9,10.1-19,11.9-29.8
	c0.6-3-0.6-6-2.4-7.7c-13.7-13.7-20.8-29.2-20.8-45.2C45.8,388.2,105.4,350.1,179.2,350.1z"/>
</svg>
