<?xml version="1.0" encoding="utf-8"?>
<!-- Generator: Adobe Illustrator 21.1.0, SVG Export Plug-In . SVG Version: 6.00 Build 0)  -->
<svg version="1.1" id="Calque_1" xmlns="http://www.w3.org/2000/svg" xmlns:xlink="http://www.w3.org/1999/xlink" x="0px" y="0px"
	 viewBox="0 0 595.3 841.9" style="enable-background:new 0 0 595.3 841.9;" xml:space="preserve">
<g>
	<path d="M87.4,589.4c8.8,0,17-3.4,23.1-9.5l2.1-2.1l6.3,6.3c6,6,14.5,9.5,23.2,9.5c8.7,0,16.9-3.4,23-9.5l50.5-50.5
		c21.3-21.3,45.1-25.2,75.4-30.3c2.9-0.5,5.8-1,8.7-1.5c33.4-5.7,72.1-15,110.2-53.1c28.2-28.2,42.6-66.1,40.6-106.8
		c-1.9-38.4-18.4-76-45.4-102.9c-29-29-69.2-45.6-110.4-45.6c-37.8,0-73.1,14.5-99.4,40.7c-38.1,38.1-47.4,76.8-53.1,110.2
		c-0.5,3-1,5.9-1.5,8.7c-5,30.2-9,54.1-30.3,75.4L60,478.9c-12.8,12.8-12.8,33.5,0,46.3l6.3,6.3l-2.1,2.1
		c-6.1,6.1-9.5,14.3-9.5,23.1c0,8.8,3.4,17,9.5,23.1C70.4,586.1,78.6,589.4,87.4,589.4z M97.9,567.3c-2.9,2.9-6.6,4.5-10.5,4.5
		s-7.6-1.6-10.5-4.5c-2.9-2.9-4.5-6.6-4.5-10.5c0-3.9,1.6-7.6,4.5-10.5l2.1-2.1l21.1,21.1L97.9,567.3z M130.8,432.3
		c18.8-23.5,23.3-50.5,27.6-76.7c0.5-2.8,0.9-5.6,1.4-8.4c5.9-34.6,13.7-66,48.2-100.5c22.9-22.9,53.8-35.5,86.9-35.5
		c36.4,0,72,14.7,97.7,40.4c23.7,23.7,38.4,56.7,40.2,90.5c1.9,36-10.6,69.4-35.3,94.1c-34.5,34.5-65.9,42.2-100.5,48.2
		c-2.8,0.5-5.6,0.9-8.4,1.4c-26.1,4.3-53.2,8.8-76.7,27.6l-2.1,1.7l-80.6-80.6L130.8,432.3z M116.8,447.3l80,80l-21.1,21.1l-80-80
		L116.8,447.3z M72.6,491.5L83.2,481l80,80l-10.5,10.5c-2.8,2.8-6.6,4.4-10.5,4.4c-3.9,0-7.8-1.6-10.6-4.4l-58.9-58.9
		c-2.7-2.7-4.3-6.4-4.4-10.2C68.1,498.4,69.7,494.5,72.6,491.5z"/>
	<path d="M289,155.9c0,2.4,0.9,4.6,2.6,6.3c1.7,1.7,3.9,2.6,6.3,2.6h0c2.4,0,4.6-0.9,6.3-2.6c1.7-1.7,2.6-3.9,2.6-6.3v-47.6
		c0-2.4-0.9-4.7-2.5-6.3c-1.6-1.6-3.9-2.5-6.3-2.5c-5,0-8.8,3.9-8.8,8.8L289,155.9z"/>
	<path d="M203.8,307.7c1.1,0.6,2.5,0.9,3.8,0.9c3.7,0,7.2-2.2,8.5-5.2l0.1-0.2c4.3-8.1,9.8-15.5,16.3-22
		c17.5-17.5,40.7-27.1,65.3-27.1c20.6,0,40.9,7,57,19.8l0.1,0.1c1.5,1.3,3.5,2,5.7,2h0c2.7,0,5.3-1.1,6.9-3l0.1-0.1
		c1.6-1.7,2.4-3.6,2.3-5.6c-0.1-2.5-1.6-5.2-4-7.3c-19.2-15.2-43.4-23.6-68.2-23.6c-29.5,0-57.1,11.4-77.9,32.2
		c-7.7,7.7-14.2,16.5-19.3,26.3l-0.1,0.2c-1.3,1.9-1.6,4.5-1,7C200.2,304.5,201.7,306.6,203.8,307.7z"/>
	<path d="M459.9,521c1.7,1.7,3.9,2.6,6.3,2.6c0,0,0,0,0,0c2.4,0,4.6-0.9,6.3-2.6c3.5-3.5,3.5-9.1,0-12.6l-33.7-33.7
		c-1.7-1.7-3.9-2.6-6.3-2.6c-2.4,0-4.6,0.9-6.3,2.6c-3.5,3.5-3.5,9.1,0,12.6L459.9,521z"/>
	<path d="M123.2,184.3l33.7,33.7c1.7,1.7,3.9,2.6,6.3,2.6s4.6-0.9,6.3-2.6c3.5-3.5,3.5-9.1,0-12.6l-33.7-33.7
		c-1.7-1.7-3.9-2.6-6.3-2.6c-2.4,0-4.6,0.9-6.3,2.6c-1.7,1.7-2.6,3.9-2.6,6.3C120.6,180.3,121.5,182.6,123.2,184.3z"/>
	<path d="M466.2,169.1c-2.4,0-4.6,0.9-6.3,2.6l-33.7,33.7c-3.5,3.5-3.5,9.1,0,12.6c1.7,1.7,3.9,2.6,6.3,2.6c2.4,0,4.6-0.9,6.3-2.6
		l33.7-33.7c3.5-3.5,3.5-9.1,0-12.6C470.8,170,468.6,169.1,466.2,169.1z"/>
	<path d="M542.2,340c-1.6-1.6-3.9-2.5-6.3-2.5l-47.6,0c-2.4,0-4.6,0.9-6.3,2.6c-1.7,1.7-2.6,3.9-2.6,6.3c0,5,3.9,8.8,8.8,8.8h47.6
		c5,0,8.8-3.9,8.8-8.8C544.8,343.9,543.9,341.7,542.2,340z"/>
</g>
</svg>
