<?xml version="1.0" encoding="utf-8"?>
<!-- Generator: Adobe Illustrator 21.1.0, SVG Export Plug-In . SVG Version: 6.00 Build 0)  -->
<svg version="1.1" id="Calque_1" xmlns="http://www.w3.org/2000/svg" xmlns:xlink="http://www.w3.org/1999/xlink" x="0px" y="0px"
	 viewBox="0 0 595.3 841.9" style="enable-background:new 0 0 595.3 841.9;" xml:space="preserve">
<style type="text/css">
	.st0{stroke:#000000;stroke-width:3;stroke-miterlimit:10;}
</style>
<g>
	<path class="st0" d="M246.5,565.2l84.1-0.4c1.2,0,2.3-0.5,3.1-1.3c0.8-0.9,1.3-2,1.3-3.2c0,0-0.4-51.7-1-107.5
		c-0.3-34-0.9-95.1-1.2-122.6l-0.1-5l5-0.1c4.6-0.1,10.1-0.1,16-0.1l1.2,0c7.2,0,14.1,0,18.6,0.1c2.5,0,4.5,0,6,0.1
		c1.4,0,2.2,0,2.2,0c0,0,0,0,0,0c1.3,0,2.4-0.5,3.2-1.3c0.9-0.8,1.3-2,1.3-3.2l0.1-58.2c0-1.5-0.7-3.4-1.3-4
		c-1.7-1.7-2.8-2.1-3.2-2.1h-3.1c-0.5,0-1.4,0.1-2.3,0.3c-1.6,0.3-3.7,0.6-6,0.6c-3.8,0-8.4,0-13.2,0.1c-5.6,0.1-11.5,0.1-17.1,0.1
		c-3.3,0-6.3,0-8.9-0.1l-5.1-0.1l0.2-5.1c0.2-6.7,0.8-12.4,1.9-17.6c0.9-4.8,2.3-9.2,4.1-12.9c1.2-2.6,2.7-4.9,4.4-6.9
		c2.5-2.9,5.4-5,8.9-6.5c3.7-1.5,7.8-2.2,12.8-2.3h0.1c9.1,0,20.7,2.7,34.4,8c0.1,0,0.3,0.1,0.4,0.1c0,0,0.1,0,0.1,0
		c0.1,0,0.2,0,0.3,0.1c0.2,0,0.3,0.1,0.5,0.1c0.1,0,0.3,0,0.4,0l0.3,0c0.1,0,0.1,0,0.2,0c0,0,0.2,0,0.3,0l0.1,0c0.1,0,0.3,0,0.4-0.1
		c0.1,0,0.2-0.1,0.3-0.1l0.2-0.1c0.1,0,0.2-0.1,0.3-0.1c0.2-0.1,0.3-0.2,0.4-0.2c0.1-0.1,0.3-0.2,0.4-0.3c0.1-0.1,0.1-0.1,0.2-0.2
		l0.1-0.1c0.1-0.1,0.2-0.1,0.2-0.2c0.1-0.2,0.2-0.3,0.3-0.4c0.1-0.1,0.2-0.2,0.2-0.3c0.1-0.2,0.2-0.3,0.2-0.4c0-0.1,0.1-0.2,0.1-0.3
		c0,0,0,0,0,0c0.1-0.2,0.1-0.3,0.2-0.5l0.5-1.8c1.9-6.3,4.8-15.8,7.3-25.7c1.6-6.3,2.8-11.7,3.6-16.5c1-6,1.5-10.8,1.5-14.9
		c0-2.1-0.1-3.9-0.4-5.6c-0.3-1.6-1.4-2.9-2.9-3.5c-25.2-9.2-49.2-13.9-71.2-13.9c-23.7,0-45.1,5.5-63.6,16.2
		c-9.7,5.6-17.8,12.9-24.2,21.7c-8.2,11.3-13.7,25.1-16.9,42.4c-2.5,13.2-3.2,26.9-3.6,37.3l-0.2,4.7l-4.7,0.1
		c-4.9,0.1-10.9,0.2-17.8,0.2c-6,0-10.7,0-13-0.1l-4,0c-0.9,0-1.4,0-1.4,0c-1.3,0-2.4,0.5-3.3,1.3c-0.8,0.8-1.3,2-1.3,3.2l0.4,62.9
		c0,2.6,2.1,4.9,4.5,4.9h6.6c3.1,0,7,0,11.5-0.1c5.6-0.1,11.8-0.1,18-0.1c4,0,7.4,0,10.5,0.1l4.7,0.1l0.2,4.7
		c2,44.2,2.4,110.5,2.4,158.3c0,20.3-0.1,38.2-0.2,52.9l0,3.8c0,4.9-0.1,8.9-0.1,11.8l0,5.6c0,1.2,0.5,2.4,1.3,3.2
		C244.1,564.8,245.3,565.2,246.5,565.2 M244.1,314.4c-12.9-0.5-34.5-0.5-46.2-0.5l-5,0l-0.3-53.4l5.1,0c2.7,0,5.7,0,9,0
		c12.2,0,21.1-0.2,27.1-0.5c2.3-0.1,4.1-2,4.2-4.3c0.5-18.7,1.5-40.2,7.2-58.7c3-9.6,6.9-17.7,12-24.8c5.7-7.9,12.8-14.2,21.5-19.2
		c17.1-9.9,36.9-15,59.1-15h0.1c19.2,0,40,3.8,62,11.2l3.6,1.2l-0.2,3.8c-0.1,3.1-0.6,7-1.3,11.2c-1.1,6.5-3,14.5-5.5,23.7
		c-0.9,3.1-1.8,6.4-2.9,10l-1.5,4.9l-4.9-1.6c-11-3.6-20.4-5.3-28.6-5.3c-7.2,0-13.5,1.4-18.8,4.1c-4,2.1-7.5,5-10.4,8.6
		c-4.2,5.3-7.2,11.9-9.1,20.4c-1.8,7.9-2.7,17.2-2.7,28.4c0,1.1,0,2.2,0,3.4c0,2.4,2.4,3,4.3,3c1.7,0.1,3.7,0.1,6,0.1
		c6.8,0,14.9-0.3,22.7-0.5c7.4-0.2,14.5-0.5,20.1-0.5h7l-0.1,50.6l-5.4,0c-2.1,0-4.5,0.1-7.1,0.3c-3,0.2-6.4,0.3-9.9,0.3
		c-7.7,0-16.7,0.3-26.9,0.8c-2.4,0.1-4.3,2.2-4.2,4.7c0.2,13.1,0.6,56.3,1.3,132c0.2,20.6,0.4,40.8,0.5,57.9l0.4,45.2l-75.1,0.4
		l0-5.1c0.1-6.9,0.2-32.1,0.2-64.8c0-52.4-0.5-124.1-2.9-167.8C248.2,316.3,246.4,314.5,244.1,314.4z"/>
</g>
</svg>
