<?xml version="1.0" encoding="utf-8"?>
<!-- Generator: Adobe Illustrator 21.1.0, SVG Export Plug-In . SVG Version: 6.00 Build 0)  -->
<svg version="1.1" id="Calque_1" xmlns="http://www.w3.org/2000/svg" xmlns:xlink="http://www.w3.org/1999/xlink" x="0px" y="0px"
	 viewBox="0 0 595.3 841.9" style="enable-background:new 0 0 595.3 841.9;" xml:space="preserve">
<style type="text/css">
	.st0{stroke:#000000;stroke-width:5;stroke-miterlimit:10;}
</style>
<g>
	<path class="st0" d="M383.9,109.9c-0.5-0.2-0.9-0.4-1.3-0.7H143.3c-14.8,0-26.9,12.1-26.9,26.9v421.1c0,14.8,12.1,26.9,26.9,26.9
		H452c14.8,0,26.9-12.1,26.9-26.9V201.6l-90.3-90.3C386.5,111.3,385.3,111,383.9,109.9z M471.4,549.4c0,15.5-11.7,27.2-27.1,27.2
		H151c-15.5,0-27.1-11.7-27.1-27.2V143.7c0-15.5,11.7-27.1,27.1-27.1h227.8v77.9c0,7.7,7,14.7,14.7,14.7h77.9V549.4z M400.2,201.7
		c-7.2,0-15-5.7-15-15v-64.8l79.8,79.8H400.2z"/>
	<path class="st0" d="M160.9,481.4c2.2,0,3.7-1.5,3.7-3.7V157.3h187c2.2,0,3.7-1.5,3.7-3.7c0-2.2-1.5-3.7-3.7-3.7H160.9
		c-2.2,0-3.7,1.5-3.7,3.7v324.1C157.2,479.9,158.8,481.4,160.9,481.4z"/>
	<path class="st0" d="M164.7,508.6c0-2.2-1.5-3.7-3.7-3.7c-2.2,0-3.7,1.5-3.7,3.7v30.9c0,2.2,1.5,3.7,3.7,3.7h272.3
		c2.2,0,3.7-1.5,3.7-3.7V236.3c0-2.2-1.5-3.7-3.7-3.7s-3.7,1.5-3.7,3.7v299.4H164.7V508.6z"/>
	<path class="st0" d="M263.5,416.7c-2.2,0-3.7,1.5-3.7,3.7c0,2.2,1.5,3.7,3.7,3.7h122.4c2.2,0,3.7-1.5,3.7-3.7v-0.5l0.1-0.5
		c0.2-0.7,0.1-1.3-0.3-1.8c-0.5-0.6-1.4-1-2.5-1H263.5z"/>
	<path class="st0" d="M224.9,416.7h-16.5c-2.2,0-3.7,1.5-3.7,3.7v0.5l-0.1,0.5c-0.1,0.3-0.1,0.7,0.3,1.2c0.7,0.9,2.2,1.5,3.6,1.5
		h16.5c2.2,0,3.7-1.5,3.7-3.7C228.6,418.2,227.1,416.7,224.9,416.7z"/>
	<path class="st0" d="M386.9,449.7H263.5c-2.2,0-3.7,1.5-3.7,3.7c0,2.2,1.5,3.7,3.7,3.7h122.4c2.2,0,3.7-1.5,3.7-3.7V453l0.1-0.5
		c0.2-0.7,0.1-1.3-0.3-1.8C388.9,450.1,388,449.7,386.9,449.7z"/>
	<path class="st0" d="M224.9,449.7h-16.5c-2.2,0-3.7,1.5-3.7,3.7v0.5l-0.1,0.5c-0.1,0.3-0.1,0.7,0.3,1.2c0.7,0.9,2.2,1.5,3.6,1.5
		h16.5c2.2,0,3.7-1.5,3.7-3.7C228.6,451.3,227.1,449.7,224.9,449.7z"/>
	<path class="st0" d="M386.9,482.8H263.5c-2.2,0-3.7,1.5-3.7,3.7c0,2.2,1.5,3.7,3.7,3.7h122.4c2.2,0,3.7-1.5,3.7-3.7V486l0.1-0.5
		c0.2-0.7,0.1-1.3-0.3-1.8C388.9,483.2,388,482.8,386.9,482.8z"/>
	<path class="st0" d="M224.9,482.8h-16.5c-2.2,0-3.7,1.5-3.7,3.7v0.5l-0.1,0.5c-0.1,0.3-0.1,0.7,0.3,1.2c0.7,0.9,2.2,1.5,3.6,1.5
		h16.5c2.2,0,3.7-1.5,3.7-3.7C228.6,484.3,227.1,482.8,224.9,482.8z"/>
	<path class="st0" d="M344.3,387.3c0-2.2-1.5-3.7-3.7-3.7H208.3c-2.2,0-3.7,1.5-3.7,3.7v0.5l-0.1,0.5c-0.1,0.3-0.1,0.7,0.3,1.2
		c0.7,0.9,2.2,1.5,3.6,1.5h132.3C342.8,391,344.3,389.5,344.3,387.3z"/>
	<path class="st0" d="M322.5,279.3l-6.8-2.9l6.1-4.1c11.4-7.7,18.1-20.3,18.1-33.8c0-23.3-19-42.3-42.3-42.3
		c-23.3,0-42.3,18.5-42.3,41.2c0,14.2,7.2,27.4,19.3,35.4l6.1,4l-6.7,3c-24.8,11.1-40.8,37.3-40.8,66.8c0,1.1,0,2.6,0.1,3.9l0,0.5
		l-0.1,0.5c0,0.3-0.1,0.5-0.1,0.7c0,1.2,0.5,2.3,1.4,3l0.2,0.2c0.1,0.1,0.5,0.4,1.5,0.5c0.2,0,0.4,0,0.6,0h24.3
		c2.2,0,3.7-1.5,3.7-3.7c0-2.2-1.5-3.7-3.7-3.7h-20.6l0.1-4.1c1.1-34.3,26.1-61.2,56.9-61.2c31.4,0,56.8,26.9,58,61.2l0.1,4.1H334
		c-2.2,0-3.7,1.5-3.7,3.7c0,2.2,1.5,3.7,3.7,3.7h24.3c0.1,0,0.1,0,0.2,0l0.3,0l0.3,0c0.2,0,0.2,0,0.3,0c2.6,0,3.4-1,4.5-8.4
		c0.1-0.8,0.2-1.5,0.3-2.3C364.1,316.3,347.3,289.9,322.5,279.3z M262.8,238.5c0-19.2,15.6-34.9,34.9-34.9
		c17.9,0,33.6,15.5,34.9,34.6l0,0.3c0,19.2-15.6,34.9-34.9,34.9C278.4,273.4,262.8,257.7,262.8,238.5z"/>
</g>
</svg>
