<?xml version="1.0" encoding="utf-8"?>
<!-- Generator: Adobe Illustrator 21.1.0, SVG Export Plug-In . SVG Version: 6.00 Build 0)  -->
<svg version="1.1" id="Calque_1" xmlns="http://www.w3.org/2000/svg" xmlns:xlink="http://www.w3.org/1999/xlink" x="0px" y="0px"
	 viewBox="0 0 595.3 841.9" style="enable-background:new 0 0 595.3 841.9;" xml:space="preserve">
<style type="text/css">
	.st0{fill:none;}
</style>
<g>
	<g>
		<path d="M212.8,340.6l-7.7-0.8l6.3-4.6c23-17,36.8-44,36.8-72.4v-9.3c0-49.6-40.4-90-90-90h-18.6c-49.6,0-90,40.4-90,90v9.3
			c0,28.4,13.8,55.5,36.8,72.4l6.3,4.6l-7.7,0.8c-19.8,2-38.1,11.2-51.5,26c-13.5,14.9-21,34.2-21,54.3v108.6h273V420.9
			c0-20.1-7.5-39.4-21-54.3C250.9,351.9,232.6,342.6,212.8,340.6z M213.6,436.4l-57.9,21.7l41.5-99.6l33.4,40.1l-36.1,9L213.6,436.4
			z M62.8,243.9c4.8-38.6,37.8-67.8,76.7-67.8h18.6c18.6,0,36.6,6.7,50.7,19c13.9,12.1,23.1,28.8,25.8,46.9l0.6,4.1l-4.1-0.7
			c-9.5-1.7-42-8.2-60.2-18.3l-3.6-2l2.4-2.3l-8.9-8.9c-30.5,28.5-76.4,32.8-95,33.3l-3.5,0.1L62.8,243.9z M62.1,262.9l0-3l3-0.1
			c16.1-0.3,57.1-3.3,90.3-25.7l1.7-1.2l1.7,1.2c19.4,13.9,58.4,21.6,74.2,24.3l2.5,0.4v3.9c0,42.7-34.7,77.4-77.4,77.4h-18.6
			C96.9,340.2,62.2,305.6,62.1,262.9z M100.5,358.6l41.5,99.6l-57.9-21.7l19.2-28.7l-36.2-9L100.5,358.6z M142.5,517H24.9v-96
			c0-33,23.6-61.2,56.1-67l8.1-1.4L44.5,406l38.3,9.6l-18,27.1l77.8,29.2V517z M111.8,352.8h74.1l-37.1,88.9L111.8,352.8z
			 M272.7,420.9v96H155.1v-45.1l77.8-29.2l-18-27.1l38.3-9.6l-44.6-53.5l8.1,1.4C249.1,359.8,272.7,387.9,272.7,420.9z"/>
	</g>
	<g>
		<polygon class="st0" points="410.5,403.9 396.4,370 375.4,395.2 		"/>
		<polygon class="st0" points="496.5,370 482.4,403.9 517.5,395.2 		"/>
		<path d="M510.4,340.6l-7.7-0.8l6.3-4.6c23-17,36.8-44,36.8-72.4v-9.3c0-49.6-40.4-90-90-90h-18.6c-49.6,0-90,40.4-90,90v9.3
			c0,28.4,13.8,55.5,36.8,72.4l6.3,4.6l-7.7,0.8c-19.8,2-38.1,11.2-51.5,26c-13.5,14.9-21,34.2-21,54.3v108.6h273V420.9
			c0-20.1-7.5-39.4-21-54.3C548.5,351.9,530.2,342.6,510.4,340.6z M511.2,436.4l-57.9,21.7l41.5-99.6l33.4,40.1l-36.1,9L511.2,436.4
			z M360.4,243.9c4.8-38.6,37.8-67.8,76.7-67.8h18.6c18.6,0,36.6,6.7,50.7,19c13.9,12.1,23.1,28.8,25.8,46.9l0.6,4.1l-4.1-0.7
			c-9.5-1.7-42-8.2-60.2-18.3l-3.6-2l2.4-2.3l-8.9-8.9c-30.5,28.5-76.4,32.8-95,33.3l-3.5,0.1L360.4,243.9z M359.8,262.9l0-3l3-0.1
			c16.1-0.3,57.1-3.3,90.3-25.7l1.7-1.2l1.7,1.2c19.4,13.9,58.4,21.6,74.2,24.3l2.5,0.4v3.9c0,42.7-34.7,77.4-77.4,77.4h-18.6
			C394.5,340.2,359.8,305.6,359.8,262.9z M398.1,358.6l41.5,99.6l-57.9-21.7l19.2-28.7l-36.2-9L398.1,358.6z M440.2,517H322.5v-96
			c0-33,23.6-61.2,56.1-67l8.1-1.4L342.2,406l38.3,9.6l-18,27.1l77.8,29.2V517z M409.4,352.8h74.1l-37.1,88.9L409.4,352.8z
			 M570.4,420.9v96H452.8v-45.1l77.8-29.2l-18-27.1l38.3-9.6l-44.6-53.5l8.1,1.4C546.8,359.8,570.4,387.9,570.4,420.9z"/>
	</g>
	<path d="M455.4,549c-43.4,45.3-99.3,70.2-157.8,70.2c-58.5,0-114.4-24.9-157.7-70.2l-9.2,8.6c45.8,47.9,104.9,74.2,166.9,74.2
		c62,0,121.2-26.3,167-74.2L455.4,549z"/>
	<path d="M297.6,73.8c58.5,0,114.4,24.9,157.7,70.2l9.2-8.6c-45.8-47.9-104.9-74.2-166.9-74.2c-62,0-121.2,26.3-167,74.2l9.2,8.6
		C183.2,98.7,239.2,73.8,297.6,73.8z"/>
</g>
</svg>
